# xmcd
#
# Track frame offsets:
#	150
#	27749
#	51314
#	77380
#	105364
#	130211
#	160072
#	188182
#	215925
#	238396
#	266529
#	290115
#	314193
#
# Disc length: 4572 seconds
#
# Revision: 2
# Processed by: cddbd v1.5.2PL0 Copyright (c) Steve Scherf et al.
# Submitted via: audiograbber 1.83.01
#
DISCID=cb11da0d
DTITLE=Various Artist - Trance Fly
DYEAR=2001
DGENRE=Trance
TTITLE0=Minimalistix - Fire Walkers (DJ Garry VS FTM Remix)
TTITLE1=Tyler - Turn Me On (Explosive Mix)
TTITLE2=Syluer - Turn The Tide (CJ - Stone Remix)
TTITLE3=Vincent De Moor - Fly Away (Generation X Remix)
TTITLE4=Des Mitchel - The World Is Yours (Beam VS Cyrus Remix)
TTITLE5=Safri Duo - Played-A - Live (Original Club Version)
TTITLE6=Kamaya Painters - Westeland
TTITLE7=RM - God Speech
TTITLE8=Yveses Deru Uter - Back To Earth (Rave Mix)
TTITLE9=Tony Walker - Fields Of Joy (Ferry Cor Sten Remix)
TTITLE10=Schiller - Das Glockenspiel (DJ Tiesto Remix)
TTITLE11=Jam and Spoon Feat. Rea - Be.Angeled (PVD Club Mix)
TTITLE12=Jan Johnston - Flash (Tit's Going Home Mix)
EXTD=
EXTT0=
EXTT1=
EXTT2=
EXTT3=
EXTT4=
EXTT5=
EXTT6=
EXTT7=
EXTT8=
EXTT9=
EXTT10=
EXTT11=
EXTT12=
PLAYORDER=
